<svg width="25" height="25" viewBox="0 0 25 25" fill="none" xmlns="http://www.w3.org/2000/svg">
<path d="M9.03089 12.189C9.84127 13.8458 11.1842 15.1827 12.8447 15.9855C12.9662 16.0431 13.1006 16.068 13.2346 16.0579C13.3687 16.0477 13.4978 16.0029 13.6092 15.9277L16.0541 14.2974C16.1622 14.2253 16.2866 14.1813 16.4161 14.1694C16.5455 14.1575 16.6758 14.1781 16.7953 14.2293L21.3692 16.1895C21.5246 16.2555 21.6543 16.3702 21.7388 16.5164C21.8233 16.6625 21.8581 16.8322 21.8378 16.9998C21.6932 18.131 21.1413 19.1708 20.2853 19.9244C19.4293 20.678 18.328 21.0937 17.1875 21.0938C13.6651 21.0938 10.287 19.6945 7.79624 17.2038C5.30552 14.7131 3.90625 11.335 3.90625 7.81255C3.90631 6.67209 4.32206 5.57076 5.07567 4.71477C5.82927 3.85878 6.86904 3.30683 8.00029 3.16226C8.16788 3.14198 8.33753 3.17671 8.48366 3.26122C8.6298 3.34574 8.74451 3.47546 8.81052 3.63083L10.7725 8.20875C10.8232 8.32716 10.8439 8.45629 10.8327 8.58462C10.8214 8.71296 10.7786 8.83653 10.7081 8.94432L9.08345 11.4267C9.0095 11.5384 8.96579 11.6673 8.95658 11.8009C8.94736 11.9346 8.97297 12.0683 9.03089 12.189V12.189Z" stroke="white" stroke-width="1.5" stroke-linecap="round" stroke-linejoin="round"/>
</svg>
