<svg width="24" height="24" viewBox="0 0 24 24" fill="none" xmlns="http://www.w3.org/2000/svg">
<g id="LinkedinLogo">
<path id="Vector" d="M19.5 3.75H4.5C4.08579 3.75 3.75 4.08579 3.75 4.5V19.5C3.75 19.9142 4.08579 20.25 4.5 20.25H19.5C19.9142 20.25 20.25 19.9142 20.25 19.5V4.5C20.25 4.08579 19.9142 3.75 19.5 3.75Z" stroke="#272D35" stroke-width="1.5" stroke-linecap="round" stroke-linejoin="round"/>
<path id="Vector_2" d="M11.25 10.5V16.5" stroke="#272D35" stroke-width="1.5" stroke-linecap="round" stroke-linejoin="round"/>
<path id="Vector_3" d="M8.25 10.5V16.5" stroke="#272D35" stroke-width="1.5" stroke-linecap="round" stroke-linejoin="round"/>
<path id="Vector_4" d="M8.25 8.34375C8.71599 8.34375 9.09375 7.96599 9.09375 7.5C9.09375 7.03401 8.71599 6.65625 8.25 6.65625C7.78401 6.65625 7.40625 7.03401 7.40625 7.5C7.40625 7.96599 7.78401 8.34375 8.25 8.34375Z" fill="#272D35"/>
<path id="Vector_5" d="M11.25 13.125C11.25 12.4288 11.5266 11.7611 12.0188 11.2688C12.5111 10.7766 13.1788 10.5 13.875 10.5C14.5712 10.5 15.2389 10.7766 15.7312 11.2688C16.2234 11.7611 16.5 12.4288 16.5 13.125V16.5" stroke="#272D35" stroke-width="1.5" stroke-linecap="round" stroke-linejoin="round"/>
</g>
</svg>
