<svg width="24" height="24" viewBox="0 0 24 24" fill="none" xmlns="http://www.w3.org/2000/svg">
<g id="TwitterLogo">
<path id="Vector" d="M22.5006 5.68701C21.6841 6.85594 20.6655 7.86965 19.4926 8.68042L19.4926 8.6804C19.4183 10.7308 18.8198 12.7279 17.7541 14.4812C16.6884 16.2345 15.1911 17.6853 13.4052 18.6952C11.6192 19.7051 9.60418 20.2404 7.55247 20.25C5.50076 20.2595 3.48084 19.743 1.68555 18.7498L1.68616 18.7487C4.03051 18.7162 6.31343 17.9943 8.25024 16.673L8.25016 16.6731C6.17689 15.26 4.59782 13.2335 3.73433 10.8778C2.87084 8.52202 2.76623 5.95508 3.43517 3.53687L3.43513 3.53689C4.39323 5.01238 5.66407 6.25913 7.15762 7.18883C8.65117 8.11852 10.3309 8.7084 12.0778 8.91668L12.0775 8.91674C11.8936 8.03981 12.0296 7.12599 12.461 6.34067C12.8924 5.55535 13.5907 4.95042 14.4295 4.63535C15.2683 4.32028 16.1922 4.31589 17.034 4.62297C17.8757 4.93006 18.5797 5.52833 19.0186 6.30952L19.0186 6.30993C20.2036 6.27457 21.3769 6.06467 22.5006 5.68701" stroke="#272D35" stroke-width="1.5" stroke-linecap="round" stroke-linejoin="round"/>
</g>
</svg>
