<svg width="36" height="36" viewBox="0 0 36 36" fill="none" xmlns="http://www.w3.org/2000/svg">
<g id="Frame" clip-path="url(#clip0_479_629)">
<g id="Group">
<path id="Vector" d="M34.2148 35.4889C31.2436 35.4805 28.3127 35.4796 25.8374 35.4796L18.7529 35.4805C18.4245 35.4805 18.1607 35.3898 17.9895 35.2176C17.8483 35.0755 17.7772 34.8865 17.7781 34.6564C17.78 34.2438 18.0747 33.9089 18.4797 33.8593C18.621 33.8416 18.7651 33.8416 18.9185 33.8416H18.9353C22.2956 33.8406 25.6559 33.8406 29.0162 33.8406H33.6713V2.49115H2.31437V5.31346C2.31437 9.24618 2.31437 13.178 2.31437 17.1107V17.1453C2.31437 17.2819 2.31437 17.41 2.30221 17.5373C2.26105 17.976 1.9224 18.295 1.49769 18.295C1.06455 18.2903 0.716547 17.9582 0.679127 17.5223C0.672579 17.4437 0.673514 17.3633 0.673514 17.2781V17.1967C0.673514 15.9769 0.673514 14.757 0.67445 13.5381C0.676321 9.73636 0.677256 5.80552 0.66603 1.94015C0.664159 1.35174 0.842839 1.02433 1.27972 0.822266H34.7265C35.0034 0.953232 35.2017 1.15155 35.3327 1.42845V34.8743C35.1316 35.3103 34.8069 35.488 34.2223 35.488H34.2148V35.4889Z" fill="white"/>
<path id="Vector_2" d="M1.72907 35.4796C0.949799 35.4796 0.673828 35.2027 0.673828 34.4216C0.673828 30.5347 0.673828 26.6478 0.673828 22.7609C0.673828 22.0228 0.958219 21.7338 1.68884 21.7328C2.52237 21.7319 3.35496 21.731 4.18849 21.731L7.57031 21.7319H10.9708C11.7632 21.7319 12.5565 21.7319 13.3489 21.7328C14.1599 21.7338 14.4209 21.9948 14.4209 22.8077C14.4219 26.6721 14.4219 30.5356 14.4209 34.4C14.4209 35.2073 14.1515 35.4805 13.3554 35.4805H7.54224L1.72907 35.4796ZM2.33901 33.8098H12.7754V23.3839H2.33901V33.8098Z" fill="white"/>
<path id="Vector_3" d="M17.0174 19.8964C16.8285 19.8964 16.6535 19.8169 16.4964 19.6588C16.1278 19.2884 16.1961 18.7973 16.6825 18.3099C16.6825 18.3099 23.9223 11.0712 25.7783 9.21524C25.8354 9.15817 25.8897 9.09924 25.9617 9.02066C26.0001 8.9795 26.0422 8.93272 26.0936 8.87847L26.3874 8.56321L22.8858 8.56415C22.1907 8.56415 21.4966 8.56321 20.8015 8.56134C20.2664 8.55947 19.9147 8.31999 19.837 7.90277C19.7902 7.65113 19.8464 7.41165 19.997 7.2283C20.1607 7.02998 20.4124 6.91866 20.708 6.91679C21.1261 6.91305 21.5443 6.91211 21.9634 6.91211C22.2609 6.91211 22.5593 6.91305 22.8568 6.91305C23.1552 6.91398 23.4527 6.91398 23.7511 6.91398H26.3696C26.9908 6.91398 27.611 6.91398 28.2322 6.91492C28.9375 6.91585 29.2387 7.21707 29.2397 7.92242C29.2416 10.408 29.2415 12.8935 29.2387 15.379C29.2378 15.9628 28.9225 16.3257 28.4155 16.3257C28.3977 16.3257 28.38 16.3257 28.3612 16.3248C27.9936 16.307 27.6914 16.047 27.626 15.6924C27.597 15.5353 27.5932 15.3706 27.5923 15.2163C27.5904 14.0432 27.5904 12.8701 27.5904 11.697V9.76716L27.2751 10.0609C27.2199 10.1133 27.1722 10.1563 27.1311 10.1947C27.0534 10.2658 26.9954 10.32 26.9384 10.3762C24.666 12.6456 17.8397 19.4671 17.8397 19.4671C17.56 19.7477 17.2756 19.8964 17.0174 19.8964Z" fill="white"/>
</g>
</g>
<defs>
<clipPath id="clip0_479_629">
<rect width="34.6667" height="34.6667" fill="white" transform="translate(0.666016 0.822266)"/>
</clipPath>
</defs>
</svg>
