<svg width="36" height="36" viewBox="0 0 36 36" fill="none" xmlns="http://www.w3.org/2000/svg">
<g id="Frame" clip-path="url(#clip0_479_613)">
<g id="Group">
<path id="Vector" d="M23.5054 13.4725C23.4185 13.4725 23.3246 13.4586 23.2291 13.4308C22.9258 13.344 22.6929 13.1268 22.5904 12.8366C22.4887 12.5481 22.5339 12.2371 22.7138 11.9826C22.7955 11.8661 22.9076 11.7541 23.0266 11.635L23.0353 11.6264C26.1112 8.54821 28.6441 6.01654 31.0066 3.65777C31.0344 3.62996 31.0874 3.59608 31.1422 3.55959C31.1813 3.5344 31.2204 3.50833 31.2586 3.4814L31.5697 3.25899L31.2056 2.58307H30.5635C30.076 2.58307 29.5877 2.58393 29.1002 2.5848C28.6128 2.58567 28.1262 2.58654 27.6387 2.58654C26.8611 2.58654 26.2224 2.5848 25.6307 2.58046C25.2414 2.57785 24.9052 2.39019 24.7305 2.07916C24.5663 1.78638 24.5759 1.44581 24.7575 1.14347C24.9425 0.835919 25.1954 0.685617 25.5317 0.684749C25.9896 0.683011 26.4475 0.679536 26.9045 0.676929C27.6344 0.671717 28.3895 0.666504 29.1315 0.666504C30.1829 0.666504 31.0518 0.676061 31.8642 0.697781C33.5056 0.740351 34.9688 2.04441 35.2695 3.73161C35.2842 3.81589 35.3068 3.89147 35.3259 3.95837C35.3277 3.96532 35.3303 3.97227 35.332 3.98009V10.6047C35.3042 10.6559 35.2773 10.7063 35.2521 10.7567C35.1739 10.9079 35.1 11.0495 35.0131 11.1346C34.8315 11.3127 34.6299 11.4031 34.4127 11.4031C34.2867 11.4031 34.1529 11.3727 34.0139 11.3136C33.6159 11.1433 33.4291 10.8531 33.4274 10.3987C33.423 9.21632 33.423 8.01391 33.4239 6.85146C33.4239 6.38144 33.4248 4.00876 33.4248 4.00876L32.6949 4.68729C32.6471 4.7316 32.6045 4.77069 32.5672 4.80458C32.4924 4.87321 32.4281 4.93142 32.3647 4.99484L31.4089 5.95052C29.0377 8.32146 26.6664 10.6924 24.2978 13.0659C24.0215 13.3431 23.7695 13.4725 23.5054 13.4725Z" fill="white"/>
<path id="Vector_2" d="M3.96918 35.3332C3.38006 35.2029 2.71274 35.0083 2.16881 34.58C1.20693 33.8233 0.709921 32.8641 0.691674 31.7303C0.663 29.9484 0.671689 28.1335 0.679509 26.3777L0.682985 25.6001C0.685592 25.0302 1.08442 24.6167 1.63096 24.6167H1.64139C2.19227 24.6219 2.5798 25.038 2.58241 25.6279C2.58849 26.7886 2.58675 27.9693 2.58588 29.1109C2.58501 29.5914 2.58501 30.0709 2.58501 30.5514V32.024L3.31924 31.3264C3.3679 31.2803 3.41047 31.2403 3.44957 31.203C3.52951 31.1274 3.59468 31.0666 3.65724 31.0032L5.19346 29.4663C7.36311 27.2969 9.5319 25.1275 11.6989 22.9555C11.9883 22.6653 12.2377 22.5359 12.5053 22.5359C12.5887 22.5359 12.6773 22.5489 12.7686 22.5741C13.0796 22.6601 13.3177 22.8782 13.4211 23.1727C13.5236 23.4638 13.4759 23.7783 13.2899 24.0354C13.2082 24.1492 13.0961 24.2613 12.9884 24.369C10.3322 27.0267 7.67505 29.6835 5.01708 32.3394C4.96929 32.3872 4.91194 32.4358 4.85025 32.4871C4.81723 32.5149 4.78421 32.5427 4.75206 32.5705L4.55047 32.746L4.72339 33.4245L8.12862 33.4236C8.88543 33.4236 9.64138 33.4245 10.3982 33.4271C10.8518 33.4288 11.1428 33.6148 11.3123 34.0135C11.4756 34.3958 11.4165 34.7233 11.1324 35.0127C11.0481 35.0987 10.9056 35.1725 10.7544 35.2516C10.7049 35.2776 10.6537 35.3037 10.6033 35.3315H3.96918V35.3332Z" fill="white"/>
<path id="Vector_3" d="M25.4066 35.3332C25.3553 35.3054 25.3049 35.2785 25.2554 35.2533C25.1051 35.1751 24.9626 35.1013 24.8783 35.0153C24.5942 34.726 24.5351 34.3993 24.6976 34.0161C24.8679 33.6174 25.1572 33.4314 25.6108 33.4297C26.3598 33.4262 27.1088 33.4262 27.8587 33.4262L31.9981 33.4271L31.3247 32.6982C31.2813 32.6513 31.243 32.6096 31.2091 32.5713C31.1414 32.4975 31.0832 32.4332 31.0206 32.3698L29.8406 31.19C27.5458 28.8946 25.2502 26.5984 22.9528 24.3048C22.5783 23.9312 22.4706 23.621 22.5792 23.2344C22.6974 22.8165 23.0606 22.5359 23.4837 22.5359C23.6827 22.5359 23.8756 22.6002 24.0442 22.7227C24.1563 22.8043 24.264 22.9121 24.3778 23.0259C27.0341 25.6809 29.6894 28.3377 32.3439 30.9945C32.39 31.0405 32.4369 31.0979 32.4873 31.1587C32.5151 31.1926 32.5429 31.2256 32.5707 31.2586L32.7523 31.4706L33.4275 31.2751C33.4275 31.2751 33.4275 29.6565 33.4266 29.1856C33.4257 28.0136 33.4249 26.8008 33.4301 25.6088C33.4318 25.1553 33.6186 24.8651 34.0166 24.6948C34.1547 24.6358 34.2885 24.6062 34.4145 24.6062C34.6309 24.6062 34.8333 24.6966 35.0149 24.8756C35.101 24.9598 35.1748 25.1023 35.253 25.2535C35.2791 25.303 35.3052 25.3543 35.333 25.4055V32.024C35.3321 32.0257 35.3321 32.0283 35.3312 32.0301C35.3121 32.0892 35.2913 32.1552 35.2756 32.2308C34.9706 33.7173 34.1208 34.6782 32.6793 35.1673C32.5377 35.2151 32.3856 35.2507 32.224 35.2881C32.1615 35.3028 32.0998 35.3167 32.0372 35.3324H25.4066V35.3332Z" fill="white"/>
<path id="Vector_4" d="M12.5308 13.4743C12.3231 13.4743 12.1206 13.4039 11.946 13.271C11.8469 13.1954 11.7496 13.099 11.6471 12.9964L11.6323 12.9817C8.97608 10.3258 6.31984 7.66986 3.6662 5.01135C3.62623 4.97138 3.58366 4.91491 3.53848 4.85583C3.51154 4.82021 3.48373 4.78459 3.45593 4.74984L3.25695 4.50223L2.86421 4.65427L2.58616 4.76114V5.41273C2.58616 5.9036 2.58703 6.39534 2.58703 6.88621C2.58789 8.0278 2.58963 9.2085 2.58355 10.3683C2.58007 10.9513 2.17951 11.3909 1.65035 11.3909C1.55042 11.3909 1.44789 11.3753 1.34536 11.3431C0.948273 11.2198 0.690208 10.8844 0.688471 10.49C0.685864 10.0269 0.682388 9.56297 0.678044 9.0999C0.66501 7.46917 0.651108 5.7811 0.703242 4.12778C0.762328 2.29984 2.37936 0.725582 4.23534 0.689961C5.06166 0.674323 5.93404 0.666504 6.98194 0.666504C7.82217 0.666504 8.67717 0.671717 9.50437 0.676061L10.4306 0.681273C10.9789 0.68388 11.3934 1.09134 11.3942 1.62826C11.3951 2.17647 10.9763 2.57612 10.3993 2.57959C9.78416 2.58307 9.11423 2.5848 8.29225 2.5848C7.82825 2.5848 7.36426 2.58393 6.90027 2.58393C6.43627 2.58307 5.97228 2.58307 5.50741 2.58307H4.7897L4.50209 3.24335L4.75494 3.45186C4.78883 3.48053 4.82445 3.50746 4.85921 3.53527C4.91916 3.58218 4.97564 3.62649 5.01822 3.66819C6.17212 4.82021 7.32429 5.97224 8.47733 7.12513C10.0057 8.65334 11.5341 10.1807 13.0634 11.7072C13.4257 12.0686 13.5378 12.3813 13.4405 12.7523C13.3267 13.1841 12.9609 13.4743 12.5308 13.4743Z" fill="white"/>
</g>
</g>
<defs>
<clipPath id="clip0_479_613">
<rect width="34.6667" height="34.6667" fill="white" transform="translate(0.666016 0.666504)"/>
</clipPath>
</defs>
</svg>
