<svg width="35" height="40" viewBox="0 0 35 40" fill="none" xmlns="http://www.w3.org/2000/svg">
<g id="Frame" clip-path="url(#clip0_479_622)">
<g id="Group">
<path id="Vector" d="M17.4148 39.6443C15.8988 39.6443 14.3508 39.5589 12.814 39.3911C9.47925 39.0271 6.86141 38.3692 4.57658 37.3211C3.63322 36.8883 2.43703 36.2527 1.54932 35.1619C0.282386 33.6053 0.385212 31.6761 1.81347 30.2467C2.68702 29.3723 3.7634 28.7056 5.30297 28.0875C6.8699 27.4586 8.6255 26.9783 10.6698 26.6212C10.7405 26.6085 10.8066 26.5911 10.883 26.5707C10.9198 26.561 10.9594 26.5503 11.0037 26.5396L11.2594 26.4766L11.033 26.1059C10.9792 26.0166 10.9311 25.938 10.882 25.8603C10.482 25.2179 10.0802 24.5774 9.6783 23.936C8.79625 22.5308 7.88496 21.0771 7.01518 19.6321C5.38882 16.9275 4.83223 14.0133 5.35863 10.97C6.12747 6.53031 8.5755 3.30265 12.6376 1.37537C13.7602 0.842607 15.0206 0.519453 16.3847 0.412706C16.4667 0.405913 16.5413 0.387475 16.6139 0.369036C16.6366 0.363214 16.6582 0.357391 16.6809 0.352539H18.1497C18.4271 0.405913 18.7101 0.453464 18.9827 0.500045C19.5865 0.60194 20.21 0.707717 20.8015 0.876572C23.2316 1.57334 25.307 3.00764 26.9692 5.14162C28.156 6.6652 28.955 8.38383 29.3456 10.25C30.0502 13.6251 29.5286 16.7916 27.7947 19.6602C26.9258 21.0975 26.0193 22.5434 25.1429 23.9428C24.7297 24.6017 24.3165 25.2606 23.9061 25.9205C23.8646 25.9884 23.8269 26.0564 23.7835 26.1359C23.7618 26.1767 23.7373 26.2204 23.7099 26.2689L23.5759 26.5066L23.8382 26.5571C23.9665 26.5814 24.092 26.6047 24.2155 26.6279C24.474 26.6755 24.7184 26.7211 24.9627 26.7725C26.8758 27.1714 29.1012 27.7284 31.1049 28.8366C32.036 29.351 33.0737 30.0322 33.7077 31.1812C34.401 32.4369 34.3265 33.6859 33.486 34.8931C32.7634 35.9315 31.7011 36.571 30.8568 37.0116C29.0041 37.9791 26.9079 38.6215 24.0589 39.0951C21.8769 39.4609 19.6421 39.6443 17.4148 39.6443ZM17.4007 37.622C17.6667 37.622 17.9337 37.6258 18.1997 37.6297C18.4686 37.6336 18.7374 37.6375 19.0063 37.6375C19.3742 37.6375 19.6798 37.6297 19.9666 37.6142C23.0307 37.4463 25.6787 36.9601 28.0607 36.1294C29.2465 35.716 30.488 35.2017 31.5294 34.2478C32.0266 33.7926 32.2719 33.3521 32.2794 32.8998C32.287 32.4496 32.0596 32.0032 31.5832 31.5354C30.8097 30.7756 29.8729 30.3166 29.0597 29.9682C27.2909 29.2112 25.3457 28.7212 22.7514 28.3776C22.7373 28.3757 22.7231 28.3747 22.708 28.3747C22.5213 28.3747 22.3024 28.5348 22.2071 28.6833C21.7968 29.3219 21.3911 29.9788 20.9987 30.6135L20.6609 31.1599L20.0496 32.1468C19.4742 33.0745 18.8799 34.0333 18.2988 34.9804C18.0573 35.3735 17.7799 35.5569 17.4252 35.5569C17.3639 35.5569 17.2997 35.5511 17.2337 35.5404C16.9035 35.486 16.7035 35.2599 16.5045 34.9387C15.996 34.1158 15.4866 33.2929 14.9772 32.4709C14.2064 31.2268 13.4357 29.9827 12.6688 28.7357C12.5565 28.5533 12.4131 28.3592 12.1197 28.3592C12.0622 28.3592 12.0027 28.367 11.9358 28.3815C11.6443 28.4475 11.3377 28.4912 11.0424 28.5339C10.8141 28.5669 10.5792 28.5999 10.3471 28.6445C8.43588 29.0084 6.41237 29.4946 4.56149 30.5815C4.00679 30.9075 3.47001 31.3404 2.96437 31.8702C2.39081 32.4709 2.38892 33.1987 2.95777 33.8674C3.22568 34.1818 3.51624 34.4535 3.82283 34.6748C5.10298 35.5996 6.54538 36.0955 7.78685 36.4584C10.4811 37.2464 13.3753 37.6297 16.6356 37.6297C16.8865 37.6288 17.1441 37.6258 17.4007 37.622ZM17.2639 2.31475C13.9404 2.31475 11.1688 3.80825 9.02549 6.75351C6.55293 10.152 6.38501 15.04 8.6189 18.6403C10.7349 22.0524 12.8546 25.4625 14.9734 28.8726L17.0262 32.1759C17.0705 32.2477 17.1186 32.3176 17.1724 32.3962C17.1988 32.435 17.2271 32.4767 17.2582 32.5223L17.4148 32.7552L17.5695 32.5214C17.6016 32.4738 17.6309 32.4292 17.6592 32.3875C17.7167 32.3011 17.7686 32.2235 17.8176 32.1448C18.6733 30.7659 19.5289 29.3859 20.3836 28.006C22.2081 25.0626 24.0938 22.0184 25.9579 19.0314C28.1701 15.4854 28.3918 11.8347 26.6164 8.18101C24.9523 4.75733 22.126 2.74951 18.4422 2.37686C18.0459 2.3361 17.6488 2.31475 17.2639 2.31475Z" fill="white"/>
<path id="Vector_2" d="M17.4134 18.6395C15.9615 18.6395 14.5927 18.0524 13.5579 16.9868C12.523 15.9213 11.9541 14.5122 11.9551 13.0187C11.9579 9.92501 14.4059 7.40674 17.4134 7.40674H17.4285C20.4227 7.41547 22.866 9.92792 22.8745 13.009C22.8783 14.5025 22.3113 15.9135 21.2774 16.981C20.2435 18.0495 18.8728 18.6385 17.42 18.6395H17.4134ZM17.3964 9.34566C15.4276 9.36313 13.8314 11.0167 13.839 13.0314C13.8456 15.0518 15.4484 16.6986 17.4115 16.7025C18.3549 16.7025 19.2794 16.2988 19.9548 15.5943C20.635 14.8849 21.0029 13.962 20.9906 12.9955C20.9642 10.9828 19.3661 9.34566 17.4285 9.34566H17.3964Z" fill="white"/>
</g>
</g>
<defs>
<clipPath id="clip0_479_622">
<rect width="33.5111" height="39.2889" fill="white" transform="translate(0.666016 0.355469)"/>
</clipPath>
</defs>
</svg>
