<svg width="38" height="41" viewBox="0 0 38 41" fill="none" xmlns="http://www.w3.org/2000/svg">
<g id="Frame" clip-path="url(#clip0_479_637)">
<g id="Group">
<path id="Vector" d="M1.09594 40.6447C0.772482 40.4626 0.563005 40.2174 0.519877 39.9659C0.488045 39.7797 0.549656 39.5945 0.699576 39.43C0.793019 39.3265 0.938831 39.251 1.10621 39.162C1.19554 39.1144 1.28899 39.0657 1.38448 39.0078L1.48306 38.9478C1.48306 38.9478 1.48306 16.8176 1.48306 12.3922C1.48306 11.7434 1.66687 11.5168 2.30043 11.3833C2.4945 11.3419 2.69063 11.3057 2.88573 11.2685C3.02744 11.2416 3.16914 11.2157 3.31085 11.1867C3.90129 11.0688 4.49275 10.9498 5.08832 10.8298L5.96217 10.6539V8.06089C5.96217 6.44572 5.96114 4.83158 5.96319 3.21641C5.96422 2.59352 6.15316 2.36589 6.77132 2.24483C7.80844 2.04099 8.84556 1.83612 9.88267 1.63125C11.8717 1.23909 13.9295 0.832457 15.9534 0.440304C16.0869 0.414437 16.2224 0.383396 16.359 0.352355C16.6876 0.276821 17.0285 0.199219 17.3366 0.199219C17.4423 0.199219 17.5368 0.207496 17.6272 0.226121C20.9921 0.896608 24.4054 1.6209 27.7067 2.32243C28.5508 2.50143 29.3948 2.68044 30.2399 2.85944C30.9351 3.00637 31.085 3.19572 31.085 3.92311C31.085 6.09599 31.085 13.5272 31.085 13.5272C31.085 13.5272 32.1078 13.7435 32.5349 13.8335C33.5207 14.0425 34.5404 14.2577 35.5395 14.4647C36.4236 14.6478 36.515 14.7585 36.515 15.6463V39.0864L36.6854 39.1164C37.128 39.194 37.357 39.3617 37.4494 39.6752C37.5377 39.9753 37.5388 40.3239 36.8918 40.6457H1.09594V40.6447ZM10.9588 11.225C10.9044 11.2323 10.8541 11.2374 10.8079 11.2426C10.7134 11.2529 10.6312 11.2623 10.546 11.2788C9.90218 11.4061 9.25835 11.5354 8.61349 11.6637C6.95308 11.9959 5.23619 12.3383 3.54497 12.6612C3.06441 12.7522 2.96788 13.0037 2.96891 13.3782C2.97712 20.5146 2.9761 27.7709 2.9761 34.7883V39.1061H11.1621V31.0178L10.9321 31.0458C10.888 31.0509 10.8479 31.0551 10.8089 31.0592C10.7267 31.0675 10.6497 31.0747 10.5717 31.0913C8.7593 31.4659 6.94691 31.8404 5.13556 32.2191C4.9918 32.2491 4.86139 32.2646 4.74638 32.2646C4.28841 32.2646 4.18367 32.0308 4.14362 31.8259C4.1159 31.6852 4.03169 31.2568 4.91889 31.0737C6.76722 30.6929 8.74698 30.2832 10.7031 29.8662C10.8561 29.8341 11.158 29.6717 11.1621 29.4451C11.1775 28.5946 11.1765 27.7254 11.1755 26.8842V26.0047L10.9403 26.0388C10.9034 26.044 10.8715 26.0482 10.8428 26.0523C10.7832 26.0606 10.737 26.0668 10.6918 26.0761L4.98461 27.2577C4.89938 27.2753 4.81826 27.2846 4.74227 27.2846C4.52253 27.2846 4.24425 27.2122 4.1621 26.8656C4.12308 26.701 4.14259 26.5572 4.21858 26.4362C4.31305 26.2851 4.49172 26.1785 4.73406 26.1268C5.50317 25.9633 6.2733 25.804 7.04344 25.6446C7.42543 25.566 7.80639 25.4863 8.18837 25.4077C8.83734 25.2721 11.006 24.8179 11.006 24.8179L11.1693 24.7837V20.9854L10.0829 21.2088C9.43599 21.3423 8.8014 21.4727 8.16784 21.6041C7.76634 21.6879 7.36381 21.7728 6.96232 21.8566C6.30411 21.9952 5.6459 22.1339 4.98666 22.2684C4.9076 22.2839 4.83161 22.2922 4.75973 22.2922C4.40239 22.2922 4.17648 22.0987 4.15594 21.7748C4.14157 21.5513 4.19188 21.2399 4.78848 21.1137C5.37687 20.9885 5.9673 20.8674 6.55671 20.7463C6.89865 20.676 7.24162 20.6056 7.58356 20.5353C8.36396 20.3728 9.14437 20.2104 9.92375 20.0479L11.1539 19.7913V15.9981L9.29429 16.382C7.84335 16.682 6.40679 16.979 4.97023 17.2739C4.89527 17.2894 4.82134 17.2977 4.75254 17.2977C4.4486 17.2977 4.23809 17.1487 4.17648 16.89C4.13643 16.7213 4.15389 16.5734 4.22988 16.4513C4.32127 16.3033 4.49686 16.1957 4.73611 16.1419C5.08421 16.0633 5.44053 15.9908 5.78452 15.9195C5.93855 15.8874 6.09258 15.8563 6.2466 15.8243L7.09478 15.6473C8.29208 15.3969 9.53149 15.1383 10.7473 14.8754C10.891 14.8444 11.1734 14.6902 11.1775 14.475C11.1919 13.6617 11.1909 12.8309 11.1898 12.0279V11.1981L10.9588 11.225ZM12.7188 39.1051H34.9973V35.6429L12.7188 30.9682V39.1051ZM12.6942 26.2261C12.6942 26.521 12.6952 26.8118 12.6962 27.0984C12.6993 27.834 12.7014 28.5294 12.687 29.2309C12.6777 29.682 12.9026 29.8217 13.2425 29.8931C18.0862 30.903 23.0099 31.9366 27.7704 32.9362L32.1293 33.8508C32.7167 33.974 33.3051 34.094 33.9017 34.2161L34.9942 34.4396V30.6474L12.6942 25.9706V26.2261ZM12.6942 21.2337C12.6942 21.5327 12.6962 21.8245 12.6993 22.1111C12.7044 22.7868 12.7106 23.4262 12.6829 24.0636C12.6572 24.6627 12.9447 24.8458 13.3842 24.9358C17.5193 25.7884 21.7212 26.669 25.7855 27.5205L34.9901 29.4492V25.685L12.6942 20.9781V21.2337ZM12.6942 16.2454C12.6942 16.5361 12.6952 16.8227 12.6962 17.1052C12.6983 17.8316 12.7003 18.5176 12.688 19.2108C12.6798 19.6227 12.842 19.8255 13.2477 19.9103C17.7524 20.8539 22.3311 21.8224 26.7589 22.7588L30.855 23.6249C31.735 23.8111 32.615 23.9943 33.5094 24.1805L35.0158 24.4951V24.2405C35.0158 23.957 35.0148 23.6766 35.0148 23.3972C35.0127 22.6605 35.0117 21.9652 35.0219 21.2575C35.0281 20.857 34.8731 20.6615 34.489 20.5808C30.0089 19.6433 25.4558 18.68 21.0527 17.7488L17.2298 16.9407C16.2656 16.7369 15.3003 16.5351 14.3145 16.3292L12.6952 15.9898V16.2454H12.6942ZM12.7168 14.8009L34.9922 19.5006V15.8719L12.7168 11.1691V14.8009ZM18.1652 2.07927C18.1601 2.11342 18.1539 2.14446 18.1488 2.17343C18.1365 2.23965 18.1252 2.30173 18.1252 2.37106C18.1241 3.16881 18.1241 3.96657 18.1241 4.76433C18.1241 6.58126 18.1241 8.46028 18.117 10.3072C18.1149 10.7728 18.4486 10.8432 18.6273 10.8805C20.5229 11.2767 22.4482 11.6854 24.3109 12.0807C25.155 12.2597 25.999 12.4387 26.8441 12.6167C27.3914 12.7326 27.9398 12.8454 28.4943 12.9602L29.517 13.1723L29.5458 12.9509C29.5509 12.9136 29.556 12.8805 29.5612 12.8495C29.5714 12.7843 29.5807 12.7233 29.5807 12.657C29.5807 11.8934 29.5807 11.1288 29.5807 10.3652C29.5807 8.51512 29.5807 6.60196 29.5868 4.72087C29.5879 4.30699 29.3455 4.19938 29.0827 4.14557C27.2816 3.77205 25.4517 3.3861 23.6814 3.01257C22.975 2.86358 22.2685 2.71458 21.561 2.56558C20.8432 2.41452 20.1255 2.26552 19.4015 2.11445L18.195 1.86302L18.1652 2.07927ZM11.9312 9.5819C12.5823 9.5819 13.2364 9.67813 13.8771 9.86851C14.4326 10.033 15.0128 10.1406 15.5745 10.2451C15.8261 10.2917 16.0869 10.3403 16.3426 10.3931L16.589 10.4438V1.83612L7.47471 3.63133V10.3569L7.7191 10.3083C7.95939 10.2607 8.19762 10.2182 8.43379 10.1758C8.9657 10.0806 9.46885 9.99061 9.97303 9.85403C10.6384 9.67295 11.2977 9.5819 11.9312 9.5819Z" fill="white"/>
<path id="Vector_2" d="M27.214 8.78922C27.1473 8.78922 27.0754 8.78094 26.9974 8.76438C26.2765 8.61435 25.5557 8.46432 24.8338 8.31532L23.5041 8.04009C22.5337 7.83833 21.5643 7.63759 20.594 7.43376C20.48 7.40996 20.3783 7.3872 20.287 7.34891C20.021 7.23923 19.8721 6.98056 19.9245 6.71774C19.983 6.42699 20.2315 6.25316 20.593 6.24902L21.2553 6.38353C21.8067 6.49528 22.3879 6.61324 22.9691 6.73326C23.2627 6.79431 23.5575 6.85432 23.8511 6.91434C24.9355 7.1368 26.0568 7.3665 27.1545 7.61173C27.3568 7.65725 27.5786 7.78452 27.7069 7.93041C27.9133 8.16426 27.7511 8.45087 27.6956 8.53261C27.5796 8.70748 27.4266 8.78922 27.214 8.78922Z" fill="white"/>
</g>
</g>
<defs>
<clipPath id="clip0_479_637">
<rect width="36.9778" height="40.4444" fill="white" transform="translate(0.511719 0.200195)"/>
</clipPath>
</defs>
</svg>
