<?xml version="1.0" encoding="utf-8"?>
<!-- Generator: Adobe Illustrator 27.8.1, SVG Export Plug-In . SVG Version: 6.00 Build 0)  -->
<svg version="1.1" id="Layer_1" xmlns="http://www.w3.org/2000/svg" xmlns:xlink="http://www.w3.org/1999/xlink" x="0px" y="0px"
	 viewBox="0 0 800 800" style="enable-background:new 0 0 800 800;" xml:space="preserve">
<path d="M146.7,741.3H120c-19.9,0-29.9,0-38.8-4.5c-7.8-4-14.1-10.2-18.1-18.1c-4.5-8.8-4.5-18.8-4.5-38.8V486.7
	c0-19.9,0-29.9,4.5-38.8c4-7.8,10.2-14.1,18.1-18.1c8.8-4.5,18.8-4.5,38.8-4.5h26.7c19.9,0,29.9,0,38.8,4.5
	c7.8,4,14.1,10.2,18.1,18.1c4.5,8.8,4.5,18.8,4.5,38.8v2.1l86.5-36.2c3.9-1.8,60.5-27.3,93.6-27.3c13.9,0,27.9,1.7,41.4,4.9
	l79.5,19.3c27,6.6,45.9,30.1,45.9,57.3v10.2c0,16.2-6.7,31-17.6,41.7c8.4-1.9,16.5-5.4,23.4-10.5l83.8-61.2
	c11.6-8.5,26-12.6,40.5-11.6c14.5,1,28.2,7.1,38.5,17.1c11.5,11.2,17.8,26.1,17.8,41.9c0,15.8-6.3,30.7-17.8,41.8l-71.9,70
	c-20.5,20-46.5,33.5-75,39L475,705.2c-21.2,4.1-43.4,3.6-64.3-1.5l-91.9-22.3c-10.3-2.5-21-3.8-31.7-3.8h-79v2.4
	c0,19.9,0,29.9-4.5,38.8c-4,7.8-10.2,14.1-18.1,18.1C176.6,741.3,166.6,741.3,146.7,741.3z M120,441.3c-17.4,0-26.1,0-31.5,2.8
	c-4.8,2.4-8.6,6.3-11.1,11.1c-2.8,5.4-2.8,14.1-2.8,31.5V680c0,17.4,0,26.1,2.8,31.5c2.4,4.8,6.3,8.6,11.1,11.1
	c5.4,2.8,14.1,2.8,31.5,2.8h26.7c17.4,0,26.1,0,31.5-2.8c4.8-2.4,8.6-6.3,11.1-11.1c2.8-5.4,2.8-14.1,2.8-31.5V501
	c0-0.1,0-0.2,0-0.4v-14c0-17.4,0-26.1-2.8-31.5c-2.4-4.8-6.3-8.6-11.1-11.1c-5.4-2.8-14.1-2.8-31.5-2.8H120z M208,661.6h79
	c12,0,24,1.4,35.5,4.3l91.9,22.3c18.7,4.5,38.5,5,57.5,1.3l101.6-19.8c25.4-5,48.5-17,66.9-34.8l71.9-70c8.4-8.1,13-18.9,13-30.4
	c0-11.5-4.6-22.3-13-30.4c-15.6-15.2-40.7-16.9-58.4-4l-83.8,61.2c-13.3,9.7-29.7,15-46.3,15h-80.9c-4.4,0-8-3.6-8-8s3.6-8,8-8h51.5
	c24.6,0,44.6-19.3,44.6-43.1V507c0-19.8-13.8-37-33.7-41.8l-79.5-19.3c-12.3-3-25-4.5-37.6-4.5c-30,0-86.5,25.6-87,25.9
	c-0.1,0-0.2,0.1-0.2,0.1L208,506.2V661.6z M550,341.3c-41.6,0-78.5-20.5-101.2-51.9c-19.7,12.2-42.1,18.6-65.5,18.6
	c-68.7,0-124.7-55.9-124.7-124.7S314.6,58.7,383.3,58.7c40.6,0,77.8,19.3,101.3,51.9C503.6,98.8,526,92,550,92
	c68.7,0,124.7,55.9,124.7,124.7S618.7,341.3,550,341.3z M550,108c-59.9,0-108.7,48.7-108.7,108.7c0,59.9,48.7,108.7,108.7,108.7
	s108.7-48.7,108.7-108.7C658.7,156.7,609.9,108,550,108z M383.3,74.7c-59.9,0-108.7,48.7-108.7,108.7c0,59.9,48.7,108.7,108.7,108.7
	c20.3,0,39.9-5.6,57-16.1c-9.6-17.6-15-37.8-15-59.2c0-39,18-73.9,46.2-96.8C451.1,91.4,418.7,74.7,383.3,74.7z"/>
</svg>
